<svg id="ecG8JRmaWOb1" xmlns="http://www.w3.org/2000/svg" xmlns:xlink="http://www.w3.org/1999/xlink" viewBox="0 0 640 480" shape-rendering="geometricPrecision" text-rendering="geometricPrecision" width="640" height="480"><path d="M100,200l20,40-20-40Z" fill="none" stroke="#3f5787" stroke-width="1.28"/><path d="M100,200l120-10" fill="none" stroke="#3f5787" stroke-width="1.28"/><path d="M300,150l110,90-110,70-80-120-20,130-80-80-90-60L20,300l40,80l60-140l180-90" fill="none" stroke="#3f5787" stroke-width="1.28"/><path d="M80,30L30,180l70,20" fill="none" stroke="#3f5787" stroke-width="1.28"/><path d="M490,10l20,90" fill="none" stroke="#3f5787" stroke-width="1.28"/><path d="M590,190l30,170-70,70-190-50l30-80-30-30" fill="none" stroke="#3f5787" stroke-width="1.28"/><path d="M360,380L200,340v-20" fill="none" stroke="#3f5787" stroke-width="1.28"/><path d="M360,380L210,400L60,380l240-70l60,70" fill="none" stroke="#3f5787" stroke-width="1.28"/><path d="M210,400l-10-60" fill="none" stroke="#3f5787" stroke-width="1.28"/><path d="M550,430L390,300" fill="none" stroke="#3f5787" stroke-width="1.28"/><path d="M390,300l20-60l180-50-80-90-30,60-70-10L260,80L100,200L80,30L260,80L490,10L410,70v80h-110" fill="none" stroke="#3f5787" stroke-width="1.28"/><path d="M620,360L410,240" fill="none" stroke="#3f5787" stroke-width="1.28"/></svg>